<svg xmlns="http://www.w3.org/2000/svg" width="800" height="800" style="shape-rendering:geometricPrecision;text-rendering:geometricPrecision;image-rendering:optimizeQuality;fill-rule:evenodd;clip-rule:evenodd"><path fill="#fefffe" d="M-.5-.5h800v800H-.5V-.5Z" style="opacity:1"/><path d="M49.5 49.5h700v700h-700v-700Z" style="opacity:1"/><path fill="#fcfcfc" d="M298.5 249.5a1416.127 1416.127 0 0 1 71 70.5 8740.647 8740.647 0 0 1-78 79.5 8740.647 8740.647 0 0 1 78 79.5 2327.44 2327.44 0 0 1-70 70.5 15926.005 15926.005 0 0 1-150-150l149-150ZM498.5 249.5a8004.753 8004.753 0 0 1 151 150 15926.005 15926.005 0 0 1-150 150 2327.44 2327.44 0 0 1-70-70.5 8740.647 8740.647 0 0 1 78-79.5 8740.647 8740.647 0 0 1-78-79.5 6885.961 6885.961 0 0 1 69-70.5Z" style="opacity:1"/></svg>