<svg xmlns="http://www.w3.org/2000/svg" xml:space="preserve" viewBox="0 0 32 32"><path d="M18 31.36h-4a.36.36 0 0 1-.312-.181l-2-3.464a.36.36 0 0 1 0-.359l2-3.464a.361.361 0 0 1 .312-.181h3.792l2.896-5.016a.359.359 0 1 1 .623.359l-2.896 5.017 1.896 3.284a.36.36 0 0 1 0 .359l-2 3.464a.356.356 0 0 1-.311.182zm-3.792-.72h3.584l1.792-3.104-1.792-3.104h-3.584l-1.792 3.104 1.792 3.104zM28 25.593h-4a.36.36 0 0 1-.312-.181l-2-3.465a.36.36 0 0 1 0-.359l1.896-3.284-2.896-5.016a.36.36 0 0 1 .132-.492.359.359 0 0 1 .491.131l2.896 5.016H28a.36.36 0 0 1 .312.181l2 3.464a.36.36 0 0 1 0 .359l-2 3.465a.362.362 0 0 1-.312.181zm-3.792-.721h3.584l1.792-3.104-1.792-3.104h-3.584l-1.792 3.104 1.792 3.104zM8 25.593H4a.36.36 0 0 1-.312-.181l-2-3.465a.36.36 0 0 1 0-.359l2-3.464A.362.362 0 0 1 4 17.943h4a.36.36 0 0 1 .312.181l1.896 3.283H16a.36.36 0 1 1 0 .72h-5.792l-1.896 3.284a.361.361 0 0 1-.312.182zm-3.792-.721h3.584l1.792-3.104-1.792-3.104H4.208l-1.792 3.104 1.792 3.104zM11 19.253a.356.356 0 0 1-.312-.181l-2.896-5.016H4a.36.36 0 0 1-.312-.18l-2-3.464a.361.361 0 0 1 0-.36l2-3.464A.362.362 0 0 1 4 6.408h4a.36.36 0 0 1 .312.18l2 3.464a.361.361 0 0 1 0 .36l-1.896 3.284 2.896 5.017a.36.36 0 0 1-.312.54zm-6.792-5.917h3.584l1.792-3.104-1.792-3.104H4.208l-1.792 3.104 1.792 3.104zm23.792.72h-4a.36.36 0 0 1-.312-.18l-1.896-3.285H16a.36.36 0 1 1 0-.72h5.792l1.896-3.284a.36.36 0 0 1 .312-.18h4a.36.36 0 0 1 .312.18l2 3.464a.361.361 0 0 1 0 .36l-2 3.464a.358.358 0 0 1-.312.181zm-3.792-.72h3.584l1.792-3.104-1.792-3.104h-3.584l-1.792 3.104 1.792 3.104zM11 13.484a.361.361 0 0 1-.312-.54l2.896-5.016-1.896-3.284a.361.361 0 0 1 0-.36l2-3.464A.36.36 0 0 1 14 .64h4a.36.36 0 0 1 .312.18l2 3.464a.361.361 0 0 1 0 .36l-2 3.464a.36.36 0 0 1-.312.18h-3.792l-2.896 5.017a.36.36 0 0 1-.312.179zm3.208-5.916h3.584l1.792-3.104-1.792-3.104h-3.584l-1.792 3.104 1.792 3.104z"/><path d="M0 0h32v32H0z" style="fill:none"/></svg>