<svg xmlns="http://www.w3.org/2000/svg" width="800" height="800" fill="none" viewBox="0 0 24 24"><path fill="#109649" fill-rule="evenodd" d="M3.5 6a2.5 2.5 0 0 0 3.572 2.259.506.506 0 0 0 .038.053l1.876 2.346A4.489 4.489 0 0 0 7.5 14c0 1.583.817 2.975 2.052 3.777A.498.498 0 0 0 9.5 18v1a1.5 1.5 0 0 0 1.5 1.5h2a1.5 1.5 0 0 0 1.5-1.5v-1a.499.499 0 0 0-.052-.223A4.496 4.496 0 0 0 16.5 14a4.488 4.488 0 0 0-1.486-3.342l1.876-2.346a.494.494 0 0 0 .038-.053 2.5 2.5 0 1 0-.796-.597.5.5 0 0 0-.022.026l-1.91 2.386a4.47 4.47 0 0 0-1.7-.546V8.45a2.5 2.5 0 1 0-1 0v1.078a4.47 4.47 0 0 0-1.7.546L7.89 7.688a.507.507 0 0 0-.022-.026A2.5 2.5 0 1 0 3.5 6ZM6 7.5a1.5 1.5 0 1 1 0-3 1.5 1.5 0 0 1 0 3Zm12 0a1.5 1.5 0 1 1 0-3 1.5 1.5 0 0 1 0 3ZM10.5 6a1.5 1.5 0 1 0 3 0 1.5 1.5 0 0 0-3 0Zm0 13v-.756c.47.166.974.256 1.5.256s1.03-.09 1.5-.256V19a.5.5 0 0 1-.5.5h-2a.5.5 0 0 1-.5-.5Zm-2-5a3.5 3.5 0 1 0 7 0 3.5 3.5 0 0 0-7 0Z" clip-rule="evenodd"/></svg>